<?xml version="1.0" encoding="UTF-8" standalone="no"?><!DOCTYPE svg PUBLIC "-//W3C//DTD SVG 1.1//EN" "http://www.w3.org/Graphics/SVG/1.1/DTD/svg11.dtd"><svg width="100%" height="100%" viewBox="0 0 480 127" version="1.1" xmlns="http://www.w3.org/2000/svg" xmlns:xlink="http://www.w3.org/1999/xlink" xml:space="preserve" xmlns:serif="http://www.serif.com/" style="fill-rule:evenodd;clip-rule:evenodd;stroke-linejoin:round;stroke-miterlimit:2;"><rect id="color" x="0" y="0" width="479.692" height="126.424" style="fill:none;"/><path d="M168.437,100.215c-4.058,0 -7.676,-0.682 -10.854,-2.045c-3.179,-1.364 -5.884,-3.204 -8.115,-5.522c-2.164,-2.386 -3.821,-5.113 -4.971,-8.182c-1.149,-3.067 -1.724,-6.374 -1.724,-9.919c-0,-4.704 1.082,-8.897 3.246,-12.578c2.164,-3.682 5.139,-6.579 8.926,-8.693c3.855,-2.181 8.251,-3.272 13.187,-3.272c3.382,-0 6.39,0.545 9.028,1.636c2.705,1.023 5.004,2.42 6.898,4.193c1.893,1.772 3.347,3.75 4.362,5.931c1.014,2.182 1.521,4.364 1.521,6.545c0,3.477 -0.812,5.931 -2.434,7.363c-1.623,1.363 -3.618,2.045 -5.985,2.045l-29.316,0c-0.067,3 0.711,5.59 2.333,7.772c1.691,2.114 3.787,3.75 6.289,4.909c2.571,1.159 5.14,1.739 7.71,1.739c1.893,-0 3.516,-0.103 4.869,-0.307c1.352,-0.205 2.536,-0.478 3.55,-0.819c1.014,-0.341 1.893,-0.681 2.638,-1.022c0.743,-0.341 1.386,-0.682 1.927,-1.023c0.609,-0.341 1.183,-0.579 1.724,-0.715c0.609,-0.137 1.184,-0.069 1.725,0.204c0.608,0.204 1.081,0.648 1.42,1.329c0.406,0.546 0.676,1.057 0.811,1.534c0.136,0.477 0.203,0.989 0.203,1.534c0,0.955 -0.811,2.011 -2.434,3.171c-1.623,1.158 -3.889,2.147 -6.797,2.965c-2.84,0.818 -6.086,1.227 -9.737,1.227Zm-16.231,-28.531l25.461,-0c1.285,-0 2.232,-0.171 2.841,-0.511c0.676,-0.341 1.014,-1.262 1.014,-2.762c-0,-1.908 -0.575,-3.613 -1.725,-5.113c-1.149,-1.568 -2.738,-2.829 -4.767,-3.783c-1.961,-0.955 -4.227,-1.432 -6.797,-1.432c-2.975,-0 -5.714,0.613 -8.216,1.84c-2.434,1.16 -4.361,2.762 -5.782,4.807c-1.42,2.045 -2.096,4.363 -2.029,6.954Z" style="fill:url(#_Linear1);fill-rule:nonzero;"/><path d="M215.784,99.909c-1.15,-0 -2.096,-0.171 -2.841,-0.512c-0.676,-0.341 -1.251,-0.955 -1.724,-1.841l-18.766,-41.212c-0.744,-1.636 -0.912,-2.863 -0.507,-3.681c0.406,-0.887 1.353,-1.705 2.84,-2.454c1.353,-0.682 2.502,-0.887 3.449,-0.614c0.947,0.205 1.759,1.09 2.435,2.659l15.114,36.303l14.81,-35.281c0.744,-1.568 1.555,-2.692 2.434,-3.375c0.879,-0.681 2.265,-0.544 4.159,0.41c1.826,0.886 2.739,1.909 2.739,3.068c-0,1.091 -0.304,2.283 -0.913,3.579l-18.665,40.496c-0.338,0.818 -0.879,1.432 -1.622,1.841c-0.744,0.409 -1.725,0.614 -2.942,0.614Z" style="fill:url(#_Linear2);fill-rule:nonzero;"/><path d="M267.501,100.215c-4.058,0 -7.676,-0.682 -10.854,-2.045c-3.179,-1.364 -5.884,-3.204 -8.115,-5.522c-2.164,-2.386 -3.821,-5.113 -4.971,-8.182c-1.149,-3.067 -1.724,-6.374 -1.724,-9.919c-0,-4.704 1.082,-8.897 3.245,-12.578c2.164,-3.682 5.14,-6.579 8.927,-8.693c3.855,-2.181 8.251,-3.272 13.187,-3.272c3.382,-0 6.391,0.545 9.028,1.636c2.705,1.023 5.004,2.42 6.898,4.193c1.893,1.772 3.347,3.75 4.362,5.931c1.014,2.182 1.521,4.364 1.521,6.545c0,3.477 -0.812,5.931 -2.434,7.363c-1.623,1.363 -3.619,2.045 -5.985,2.045l-29.316,0c-0.067,3 0.711,5.59 2.334,7.772c1.69,2.114 3.786,3.75 6.289,4.909c2.569,1.159 5.139,1.739 7.709,1.739c1.893,-0 3.516,-0.103 4.869,-0.307c1.352,-0.205 2.536,-0.478 3.55,-0.819c1.014,-0.341 1.894,-0.681 2.638,-1.022c0.743,-0.341 1.386,-0.682 1.927,-1.023c0.609,-0.341 1.183,-0.579 1.724,-0.715c0.609,-0.137 1.184,-0.069 1.725,0.204c0.608,0.204 1.082,0.648 1.42,1.329c0.406,0.546 0.676,1.057 0.811,1.534c0.136,0.477 0.203,0.989 0.203,1.534c0,0.955 -0.811,2.011 -2.434,3.171c-1.623,1.158 -3.889,2.147 -6.797,2.965c-2.84,0.818 -6.086,1.227 -9.737,1.227Zm-16.231,-28.531l25.461,-0c1.285,-0 2.232,-0.171 2.841,-0.511c0.676,-0.341 1.014,-1.262 1.014,-2.762c-0,-1.908 -0.575,-3.613 -1.725,-5.113c-1.149,-1.568 -2.739,-2.829 -4.767,-3.783c-1.961,-0.955 -4.227,-1.432 -6.796,-1.432c-2.976,-0 -5.715,0.613 -8.217,1.84c-2.434,1.16 -4.362,2.762 -5.782,4.807c-1.42,2.045 -2.096,4.363 -2.029,6.954Z" style="fill:url(#_Linear3);fill-rule:nonzero;"/><path d="M312.543,99.704c-2.164,-0 -4.125,-0.205 -5.884,-0.614c-1.69,-0.341 -3.178,-0.92 -4.463,-1.738c-1.285,-0.818 -2.367,-1.875 -3.246,-3.171c-0.811,-1.295 -1.42,-2.863 -1.826,-4.703c-0.338,-1.842 -0.507,-3.989 -0.507,-6.443l0,-51.132c0,-1.022 0.068,-1.875 0.203,-2.556c0.203,-0.682 0.642,-1.193 1.319,-1.534c0.676,-0.409 1.623,-0.614 2.84,-0.614c1.352,0 2.333,0.171 2.941,0.511c0.676,0.342 1.116,0.853 1.319,1.535c0.203,0.681 0.304,1.499 0.304,2.454l0,51.234c0,1.363 0.136,2.556 0.406,3.579c0.271,0.954 0.676,1.772 1.218,2.454c0.608,0.682 1.352,1.159 2.231,1.432c0.879,0.272 1.927,0.409 3.145,0.409c0.811,0 1.487,0.102 2.028,0.307c0.609,0.204 1.082,0.613 1.42,1.227c0.339,0.613 0.508,1.568 0.508,2.863c-0,1.363 -0.169,2.386 -0.508,3.068c-0.338,0.614 -0.811,0.989 -1.42,1.125c-0.541,0.204 -1.217,0.307 -2.028,0.307Z" style="fill:url(#_Linear4);fill-rule:nonzero;"/><path d="M328.595,99.704c-1.285,-0 -2.265,-0.205 -2.941,-0.614c-0.609,-0.341 -1.015,-0.852 -1.218,-1.534c-0.203,-0.681 -0.304,-1.5 -0.304,-2.454l-0,-40.394c-0,-0.954 0.101,-1.773 0.304,-2.454c0.203,-0.682 0.609,-1.193 1.218,-1.534c0.676,-0.341 1.69,-0.511 3.043,-0.511c1.285,-0 2.231,0.204 2.84,0.613c0.609,0.341 1.014,0.852 1.217,1.534c0.203,0.682 0.305,1.534 0.305,2.557l-0,40.291c-0,0.955 -0.102,1.773 -0.305,2.454c-0.203,0.682 -0.643,1.194 -1.319,1.535c-0.608,0.34 -1.555,0.511 -2.84,0.511Zm-0,-61.767c-1.488,0 -2.603,-0.205 -3.348,-0.613c-0.743,-0.478 -1.251,-1.126 -1.521,-1.943c-0.203,-0.819 -0.304,-1.773 -0.304,-2.864c-0,-1.091 0.135,-2.011 0.406,-2.761c0.27,-0.818 0.777,-1.398 1.521,-1.739c0.744,-0.408 1.86,-0.613 3.348,-0.613c1.42,-0 2.502,0.205 3.246,0.613c0.743,0.409 1.217,1.023 1.42,1.841c0.27,0.818 0.405,1.773 0.405,2.864c0,1.09 -0.135,2.045 -0.405,2.863c-0.203,0.75 -0.677,1.329 -1.42,1.739c-0.744,0.408 -1.86,0.613 -3.348,0.613Z" style="fill:url(#_Linear5);fill-rule:nonzero;"/><path d="M365.427,99.704c-3.178,-0 -5.883,-0.307 -8.115,-0.921c-2.164,-0.613 -3.956,-1.568 -5.376,-2.863c-1.42,-1.295 -2.435,-2.966 -3.043,-5.011c-0.609,-2.113 -0.913,-4.704 -0.913,-7.772l-0,-45.2c-0,-0.955 0.101,-1.773 0.304,-2.455c0.203,-0.681 0.609,-1.192 1.217,-1.533c0.609,-0.41 1.556,-0.614 2.841,-0.614c1.285,0 2.265,0.204 2.941,0.614c0.677,0.341 1.116,0.852 1.319,1.533c0.203,0.614 0.304,1.398 0.304,2.353l0,45.302c0,1.773 0.136,3.204 0.406,4.295c0.339,1.023 0.812,1.807 1.42,2.352c0.676,0.546 1.556,0.886 2.638,1.023c1.082,0.136 2.4,0.204 3.956,0.204c1.082,0 1.961,0.103 2.637,0.307c0.676,0.204 1.184,0.614 1.522,1.227c0.338,0.614 0.507,1.535 0.507,2.762c-0,1.295 -0.203,2.283 -0.609,2.965c-0.338,0.614 -0.879,0.989 -1.623,1.125c-0.676,0.204 -1.454,0.307 -2.333,0.307Zm-22.722,-48.371l9.738,0.103l14.1,-0.205c0.947,-0 1.758,0.102 2.434,0.307c0.677,0.136 1.184,0.545 1.522,1.227c0.406,0.614 0.609,1.568 0.609,2.864c-0,1.295 -0.17,2.283 -0.508,2.965c-0.338,0.614 -0.845,1.022 -1.521,1.227c-0.676,0.205 -1.488,0.307 -2.434,0.307l-13.897,-0.205l-10.246,0.103c-1.42,-0 -2.4,-0.341 -2.942,-1.023c-0.473,-0.682 -0.709,-1.806 -0.709,-3.374c-0,-1.5 0.304,-2.591 0.913,-3.273c0.608,-0.682 1.589,-1.023 2.941,-1.023Z" style="fill:url(#_Linear6);fill-rule:nonzero;"/><path d="M382.771,99.806c-2.029,0 -3.449,-0.409 -4.261,-1.227c-0.811,-0.818 -1.217,-2.182 -1.217,-4.091c0,-1.431 0.169,-2.522 0.507,-3.272c0.338,-0.818 0.913,-1.398 1.725,-1.738c0.811,-0.41 1.893,-0.614 3.246,-0.614c2.029,0 3.415,0.409 4.159,1.227c0.811,0.818 1.217,2.25 1.217,4.295c-0,1.364 -0.169,2.454 -0.507,3.272c-0.338,0.751 -0.913,1.296 -1.725,1.637c-0.744,0.341 -1.792,0.511 -3.144,0.511Z" style="fill:url(#_Linear7);fill-rule:nonzero;"/><path d="M402.748,99.704c-1.285,-0 -2.266,-0.205 -2.942,-0.614c-0.609,-0.341 -1.015,-0.852 -1.218,-1.534c-0.202,-0.681 -0.304,-1.5 -0.304,-2.454l-0,-40.394c-0,-0.954 0.102,-1.773 0.304,-2.454c0.203,-0.682 0.609,-1.193 1.218,-1.534c0.676,-0.341 1.69,-0.511 3.043,-0.511c1.285,-0 2.231,0.204 2.84,0.613c0.609,0.341 1.015,0.852 1.217,1.534c0.203,0.682 0.305,1.534 0.305,2.557l-0,40.291c-0,0.955 -0.102,1.773 -0.305,2.454c-0.202,0.682 -0.642,1.194 -1.318,1.535c-0.609,0.34 -1.556,0.511 -2.84,0.511Zm-0,-61.767c-1.488,0 -2.604,-0.205 -3.348,-0.613c-0.744,-0.478 -1.251,-1.126 -1.522,-1.943c-0.202,-0.819 -0.304,-1.773 -0.304,-2.864c0,-1.091 0.136,-2.011 0.406,-2.761c0.27,-0.818 0.778,-1.398 1.521,-1.739c0.744,-0.408 1.86,-0.613 3.348,-0.613c1.42,-0 2.502,0.205 3.246,0.613c0.744,0.409 1.217,1.023 1.42,1.841c0.27,0.818 0.405,1.773 0.405,2.864c0,1.09 -0.135,2.045 -0.405,2.863c-0.203,0.75 -0.676,1.329 -1.42,1.739c-0.744,0.408 -1.86,0.613 -3.347,0.613Z" style="fill:url(#_Linear8);fill-rule:nonzero;"/><path d="M439.954,100.317c-3.313,0 -6.492,-0.647 -9.535,-1.943c-2.975,-1.295 -5.646,-3.067 -8.013,-5.317c-2.367,-2.318 -4.227,-5.011 -5.58,-8.079c-1.352,-3.068 -2.028,-6.409 -2.028,-10.022c-0,-3.545 0.642,-6.817 1.927,-9.817c1.285,-3.068 3.077,-5.761 5.376,-8.079c2.3,-2.318 4.937,-4.125 7.913,-5.42c3.043,-1.363 6.289,-2.045 9.737,-2.045c4.667,-0 8.86,1.125 12.579,3.375c3.787,2.181 6.796,5.181 9.028,8.999c2.231,3.818 3.347,8.113 3.347,12.885c0,3.75 -0.676,7.193 -2.029,10.328c-1.352,3.069 -3.178,5.727 -5.477,7.977c-2.299,2.25 -4.937,4.022 -7.912,5.318c-2.976,1.227 -6.087,1.84 -9.333,1.84Zm-0.203,-8.896c2.841,-0 5.478,-0.716 7.913,-2.148c2.434,-1.432 4.395,-3.409 5.883,-5.931c1.488,-2.523 2.232,-5.386 2.232,-8.591c-0,-3.204 -0.71,-6.033 -2.131,-8.487c-1.352,-2.455 -3.245,-4.363 -5.68,-5.727c-2.434,-1.364 -5.207,-2.045 -8.318,-2.045c-2.976,-0 -5.68,0.716 -8.115,2.147c-2.367,1.432 -4.294,3.375 -5.782,5.829c-1.42,2.455 -2.13,5.25 -2.13,8.386c-0,3.272 0.744,6.17 2.232,8.692c1.487,2.455 3.449,4.398 5.883,5.829c2.502,1.364 5.173,2.046 8.013,2.046Z" style="fill:url(#_Linear9);fill-rule:nonzero;"/><path d="M66.637,99.47c0.197,0.157 0.396,0.205 0.612,0.234c0.291,0.039 1.132,-0 1.132,-0c1.149,-0 1.447,-0.495 1.447,-1.644l-0.031,-30.206l16.114,-16.655c8.881,-9.179 22.123,-23.084 22.123,-23.084c-0,0 -28.695,-0.083 -35.25,0.171c-1.431,0.056 -2.961,0.457 -4.077,1.354c-2.499,2.007 -10.915,10.689 -10.915,10.689l-8.489,-8.635c-8.111,-8.251 -11.378,-11.204 -12.397,-11.204c-0.255,0 -5.292,4.852 -11.191,10.781c-11.19,11.247 -11.757,12.029 -9.745,13.45c0.808,0.57 2.525,0.692 9.712,0.692l8.731,0l0,10.251c0,5.747 0.336,9.374 0.511,10.881c0.063,0.534 0.105,0.802 0.105,0.802c0,-0 28.012,29.247 31.608,32.123Zm-2.591,-26.635l0.042,16.731l-7.769,-9.068l7.727,-7.663Zm28.321,-37.946l-40.603,40.815l-9.495,-9.71c0,-0 27.111,-29.002 29.423,-30.472c2.313,-1.471 20.675,-0.633 20.675,-0.633Zm-39.522,9.93l-12.8,13.447l-0.438,-27.582l13.238,14.135Zm-19.296,-14.896l0.113,10.769l-10.643,-0.262l10.53,-10.507Z" style="fill:url(#_Linear10);"/><path d="M118.359,31.272c3.723,1.61 6.926,3.832 9.611,6.665c2.907,3.068 5.139,6.783 6.694,11.147c1.556,4.363 2.334,9.203 2.334,14.521c-0,5.522 -0.778,10.499 -2.334,14.93c-1.555,4.432 -3.82,8.215 -6.796,11.352c-2.908,3.136 -6.424,5.556 -10.549,7.26c-4.126,1.705 -8.724,2.557 -13.796,2.557l-22.827,-0c-1.149,-0 -1.448,-0.495 -1.448,-1.644l0.032,-26.273l9.129,-9.464l-0,28.075l15.418,-0c4.937,-0 9.198,-1.057 12.781,-3.17c3.585,-2.182 6.358,-5.216 8.318,-9.102c1.961,-3.954 2.942,-8.624 2.942,-14.01c0,-5.454 -0.981,-10.158 -2.942,-14.112c-1.96,-3.954 -4.767,-6.988 -8.419,-9.102c-1.61,-0.979 -3.356,-1.739 -5.24,-2.277l7.092,-7.353Z" style="fill:url(#_Linear11);"/><defs><linearGradient id="_Linear1" x1="0" y1="0" x2="1" y2="0" gradientUnits="userSpaceOnUse" gradientTransform="matrix(385.457,69.045,-12.2578,68.4318,79.2484,31.2724)"><stop offset="0" style="stop-color:#47bdff;stop-opacity:1"/><stop offset="1" style="stop-color:#9e4bdd;stop-opacity:1"/></linearGradient><linearGradient id="_Linear2" x1="0" y1="0" x2="1" y2="0" gradientUnits="userSpaceOnUse" gradientTransform="matrix(385.457,69.045,-12.2578,68.4318,79.2484,31.2724)"><stop offset="0" style="stop-color:#47bdff;stop-opacity:1"/><stop offset="1" style="stop-color:#9e4bdd;stop-opacity:1"/></linearGradient><linearGradient id="_Linear3" x1="0" y1="0" x2="1" y2="0" gradientUnits="userSpaceOnUse" gradientTransform="matrix(385.457,69.045,-12.2578,68.4318,79.2484,31.2724)"><stop offset="0" style="stop-color:#47bdff;stop-opacity:1"/><stop offset="1" style="stop-color:#9e4bdd;stop-opacity:1"/></linearGradient><linearGradient id="_Linear4" x1="0" y1="0" x2="1" y2="0" gradientUnits="userSpaceOnUse" gradientTransform="matrix(385.457,69.045,-12.2578,68.4318,79.2484,31.2724)"><stop offset="0" style="stop-color:#47bdff;stop-opacity:1"/><stop offset="1" style="stop-color:#9e4bdd;stop-opacity:1"/></linearGradient><linearGradient id="_Linear5" x1="0" y1="0" x2="1" y2="0" gradientUnits="userSpaceOnUse" gradientTransform="matrix(385.457,69.045,-12.2578,68.4318,79.2484,31.2724)"><stop offset="0" style="stop-color:#47bdff;stop-opacity:1"/><stop offset="1" style="stop-color:#9e4bdd;stop-opacity:1"/></linearGradient><linearGradient id="_Linear6" x1="0" y1="0" x2="1" y2="0" gradientUnits="userSpaceOnUse" gradientTransform="matrix(385.457,69.045,-12.2578,68.4318,79.2484,31.2724)"><stop offset="0" style="stop-color:#47bdff;stop-opacity:1"/><stop offset="1" style="stop-color:#9e4bdd;stop-opacity:1"/></linearGradient><linearGradient id="_Linear7" x1="0" y1="0" x2="1" y2="0" gradientUnits="userSpaceOnUse" gradientTransform="matrix(385.457,69.045,-12.2578,68.4318,79.2484,31.2724)"><stop offset="0" style="stop-color:#47bdff;stop-opacity:1"/><stop offset="1" style="stop-color:#9e4bdd;stop-opacity:1"/></linearGradient><linearGradient id="_Linear8" x1="0" y1="0" x2="1" y2="0" gradientUnits="userSpaceOnUse" gradientTransform="matrix(385.457,69.045,-12.2578,68.4318,79.2484,31.2724)"><stop offset="0" style="stop-color:#47bdff;stop-opacity:1"/><stop offset="1" style="stop-color:#9e4bdd;stop-opacity:1"/></linearGradient><linearGradient id="_Linear9" x1="0" y1="0" x2="1" y2="0" gradientUnits="userSpaceOnUse" gradientTransform="matrix(385.457,69.045,-12.2578,68.4318,79.2484,31.2724)"><stop offset="0" style="stop-color:#47bdff;stop-opacity:1"/><stop offset="1" style="stop-color:#9e4bdd;stop-opacity:1"/></linearGradient><linearGradient id="_Linear10" x1="0" y1="0" x2="1" y2="0" gradientUnits="userSpaceOnUse" gradientTransform="matrix(48.049,34.2157,-6.07445,8.53033,23.9535,31.2724)"><stop offset="0" style="stop-color:#47bdff;stop-opacity:1"/><stop offset="1" style="stop-color:#9e4bdd;stop-opacity:1"/></linearGradient><linearGradient id="_Linear11" x1="0" y1="0" x2="1" y2="0" gradientUnits="userSpaceOnUse" gradientTransform="matrix(385.457,69.045,-12.2578,68.4318,79.2484,31.2724)"><stop offset="0" style="stop-color:#47bdff;stop-opacity:1"/><stop offset="1" style="stop-color:#9e4bdd;stop-opacity:1"/></linearGradient></defs></svg>