<svg width="177" height="48" viewBox="0 0 177 48" fill="none" xmlns="http://www.w3.org/2000/svg">
<path d="M45.1797 45.1384H47.269V36.6905H45.1797V34.1016H51.719V35.9002C52.135 35.2098 52.6596 34.6921 53.2927 34.3469C53.944 34.0017 54.7037 33.8291 55.572 33.8291C56.6212 33.8291 57.5256 34.0744 58.2854 34.5649C59.0451 35.0372 59.633 35.7276 60.0491 36.636C60.4651 37.5444 60.6732 38.6072 60.6732 39.8244V45.1384H62.464V47.7273H54.2696V45.1384H55.9519V40.1787C55.9519 39.0159 55.7891 38.1439 55.4635 37.5625C55.1378 36.9812 54.6856 36.6905 54.1068 36.6905C53.6726 36.6905 53.2927 36.854 52.9671 37.181C52.6415 37.4899 52.3883 37.935 52.2074 38.5163C52.0446 39.0977 51.9632 39.7699 51.9632 40.5329V45.1384H53.5912V47.7273H45.1797V45.1384Z" fill="white"/>
<path d="M71.153 47.9998C69.6335 47.9998 68.2859 47.7 67.1101 47.1005C65.9524 46.501 65.0479 45.6653 64.3967 44.5934C63.7455 43.5215 63.4198 42.2952 63.4198 40.9144C63.4198 39.5337 63.7455 38.3074 64.3967 37.2355C65.0479 36.1636 65.9614 35.3279 67.1372 34.7284C68.313 34.1289 69.6516 33.8291 71.153 33.8291C72.6544 33.8291 73.993 34.1289 75.1688 34.7284C76.3447 35.3279 77.2582 36.1636 77.9094 37.2355C78.5606 38.3074 78.8862 39.5337 78.8862 40.9144C78.8862 42.277 78.5515 43.4942 77.8822 44.5661C77.231 45.638 76.3175 46.4828 75.1417 47.1005C73.9659 47.7 72.6363 47.9998 71.153 47.9998ZM71.153 45.4654C71.7138 45.4654 72.1932 45.3019 72.5911 44.9749C72.9891 44.6297 73.2876 44.121 73.4865 43.4488C73.6855 42.7766 73.785 41.9318 73.785 40.9144C73.785 39.8971 73.6855 39.0523 73.4865 38.3801C73.2876 37.6897 72.9891 37.181 72.5911 36.854C72.1932 36.5088 71.7138 36.3362 71.153 36.3362C70.5742 36.3362 70.0858 36.5088 69.6878 36.854C69.3079 37.181 69.0094 37.6897 68.7924 38.3801C68.5934 39.0523 68.4939 39.8971 68.4939 40.9144C68.4939 41.9318 68.5934 42.7766 68.7924 43.4488C69.0094 44.121 69.3079 44.6297 69.6878 44.9749C70.0858 45.3019 70.5742 45.4654 71.153 45.4654Z" fill="white"/>
<path d="M80.7042 36.6905H79.1304V34.1016H86.348V36.6905H85.5883L87.4605 44.4026H87.5419L88.9529 39.1704L88.1389 36.6905H87.0264V34.1016H94.6782V36.6905H93.43L95.5464 44.4299H95.655L97.5272 36.6905H96.1163V34.1016H101.869V36.6905H100.268L97.2016 47.7273H92.209L90.4724 41.1597L88.6816 47.7273H83.7432L80.7042 36.6905Z" fill="white"/>
<path d="M1.54373 9.45236H0V6.84954H7.07987V9.45236H6.33462L8.17113 17.206H8.25098L9.63501 11.9456L8.83653 9.45236H7.74527V6.84954H15.251V9.45236H14.0267L16.1027 17.2334H16.2092L18.0457 9.45236H16.6617V6.84954H22.3043V9.45236H20.7339L17.7263 20.5486H12.8289L11.1255 13.9457L9.36885 20.5486H4.52473L1.54373 9.45236Z" fill="white"/>
<path d="M33.531 20.2198C33.1229 20.366 32.5906 20.4938 31.9341 20.6034C31.5614 20.6582 31.18 20.7039 30.7896 20.7404C30.417 20.7952 30.0355 20.8226 29.6451 20.8226C28.2788 20.8226 27.0545 20.5303 25.9721 19.9459C24.8897 19.3614 24.038 18.5394 23.4169 17.48C22.8136 16.4206 22.512 15.1968 22.512 13.8087C22.512 12.384 22.8136 11.1237 23.4169 10.0277C24.038 8.9318 24.8986 8.08246 25.9987 7.4797C27.0988 6.87694 28.3586 6.57556 29.7782 6.57556C31.1977 6.57556 32.4398 6.87694 33.5044 7.4797C34.5868 8.06419 35.4208 8.89527 36.0063 9.97293C36.5919 11.0323 36.8935 12.2652 36.9113 13.6717C36.9113 13.7995 36.9024 13.9365 36.8847 14.0827C36.8847 14.2105 36.8758 14.3475 36.858 14.4936H27.2763C27.3472 15.3886 27.4892 16.1466 27.7021 16.7677C27.9328 17.3887 28.2256 17.8545 28.5805 18.165C28.9353 18.4755 29.3434 18.6307 29.8048 18.6307C30.2129 18.6307 30.6654 18.4755 31.1622 18.165C31.6768 17.8545 32.1204 17.4892 32.493 17.069C32.8834 16.6489 33.1229 16.2745 33.2116 15.9457V15.7813H35.8999V21.4528H33.531V20.2198ZM32.147 12.8497C32.0583 11.9182 31.9075 11.1602 31.6945 10.5757C31.4816 9.97293 31.2066 9.52542 30.8694 9.23318C30.5323 8.94093 30.1419 8.79481 29.6983 8.79481C29.2547 8.79481 28.8644 8.95006 28.5272 9.26058C28.1901 9.55282 27.9151 10.0003 27.7021 10.6031C27.5069 11.2058 27.3739 11.9547 27.3029 12.8497H32.147Z" fill="white"/>
<path d="M47.6199 20.8226C46.7682 20.8226 46.0229 20.6582 45.3841 20.3294C44.7453 19.9824 44.2041 19.471 43.7605 18.7951V20.5486H39.3955V3.97273H37.2662V1.36991H43.9735V8.41123C44.3993 7.80847 44.9139 7.35184 45.5172 7.04133C46.1382 6.73081 46.8391 6.57556 47.6199 6.57556C48.7732 6.57556 49.8113 6.87694 50.734 7.4797C51.6566 8.06419 52.3753 8.89527 52.8899 9.97293C53.4044 11.0506 53.6617 12.2926 53.6617 13.6991C53.6617 15.1055 53.4044 16.3476 52.8899 17.4252C52.3753 18.5029 51.6566 19.3431 50.734 19.9459C49.829 20.5303 48.791 20.8226 47.6199 20.8226ZM46.3423 18.028C46.8214 18.028 47.2295 17.8819 47.5666 17.5896C47.9215 17.2791 48.1966 16.8042 48.3917 16.1649C48.5869 15.5256 48.6845 14.7037 48.6845 13.6991C48.6845 12.6945 48.5869 11.8725 48.3917 11.2332C48.1966 10.5757 47.9215 10.1008 47.5666 9.80854C47.2295 9.51629 46.8214 9.37017 46.3423 9.37017C45.8455 9.37017 45.393 9.56196 44.9849 9.94553C44.5945 10.3108 44.284 10.8223 44.0533 11.4798C43.8404 12.1374 43.7339 12.8771 43.7339 13.6991C43.7339 14.5028 43.8404 15.2334 44.0533 15.8909C44.284 16.5485 44.5945 17.069 44.9849 17.4526C45.393 17.8362 45.8455 18.028 46.3423 18.028Z" fill="white"/>
<path d="M55.9906 12.9867H58.4925V13.1237C58.4925 13.8178 58.7143 14.5758 59.1579 15.3978C59.6193 16.2197 60.2048 16.9138 60.9146 17.48C61.6421 18.028 62.3696 18.302 63.0971 18.302C63.6294 18.302 64.073 18.1558 64.4279 17.8636C64.7828 17.5531 65.0401 17.1421 65.1998 16.6307C65.3772 16.101 65.466 15.4982 65.466 14.8224C65.466 14.0918 65.3683 13.4799 65.1732 12.9867C64.978 12.4936 64.7118 12.1283 64.3747 11.8908C64.0553 11.6351 63.6915 11.5072 63.2834 11.5072C62.9818 11.5072 62.6713 11.5712 62.3519 11.699C62.0502 11.8269 61.7663 12.0095 61.5001 12.247L61.234 12.4936L59.9564 10.7401L65.3861 6.0002H60.7283C60.2669 6.0002 59.9121 6.02759 59.6636 6.08239C59.433 6.13719 59.2555 6.23765 59.1313 6.38377C59.0249 6.52989 58.9716 6.75821 58.9716 7.06872V8.00026H56.4431V0H58.9982V1.36991H70.6295V3.94534L64.2416 9.86334C64.4723 9.77201 64.7296 9.70808 65.0135 9.67155C65.2974 9.61675 65.5635 9.58935 65.812 9.58935C66.7701 9.58935 67.6307 9.80854 68.3937 10.2469C69.1745 10.667 69.7866 11.2698 70.2302 12.0552C70.6738 12.8223 70.8956 13.7082 70.8956 14.7128C70.8956 15.8818 70.6029 16.9321 70.0173 17.8636C69.4317 18.7951 68.5889 19.5349 67.4888 20.0828C66.3886 20.6125 65.0844 20.8774 63.5762 20.8774C63.0084 20.8774 62.4406 20.8135 61.8728 20.6856C61.305 20.5577 60.7993 20.3842 60.3557 20.165C60.0718 20.0737 59.7701 19.9824 59.4507 19.8911C59.1491 19.7815 58.8474 19.6901 58.5458 19.6171V21.3432H55.9906V12.9867Z" fill="white"/>
<path d="M72.3558 23.4254H74.4052V9.45236H72.3558V6.84954H78.7702V8.57562C79.2138 7.91807 79.755 7.4249 80.3938 7.09612C81.0503 6.74908 81.8045 6.57556 82.6562 6.57556C83.8095 6.57556 84.8476 6.8678 85.7703 7.4523C86.693 8.03679 87.4116 8.86787 87.9262 9.94553C88.4407 11.0232 88.698 12.2744 88.698 13.6991C88.698 15.1055 88.4319 16.3476 87.8995 17.4252C87.385 18.5029 86.6663 19.3431 85.7436 19.9459C84.8387 20.5303 83.8095 20.8226 82.6562 20.8226C81.8577 20.8226 81.1568 20.6673 80.5535 20.3568C79.9502 20.0463 79.4356 19.5805 79.0098 18.9595V23.5624H82.3368V26.0282H72.3558V23.4254ZM81.3786 18.028C81.84 18.028 82.2481 17.8819 82.6029 17.5896C82.9578 17.2791 83.224 16.8042 83.4014 16.1649C83.5966 15.5256 83.6942 14.7037 83.6942 13.6991C83.6942 12.6945 83.5966 11.8725 83.4014 11.2332C83.224 10.5757 82.9578 10.1008 82.6029 9.80854C82.2481 9.51629 81.84 9.37017 81.3786 9.37017C80.864 9.37017 80.4027 9.56196 79.9946 9.94553C79.6042 10.3108 79.3025 10.8223 79.0896 11.4798C78.8767 12.1374 78.7702 12.8771 78.7702 13.6991C78.7702 14.5028 78.8767 15.2334 79.0896 15.8909C79.3025 16.5485 79.6042 17.069 79.9946 17.4526C80.4027 17.8362 80.864 18.028 81.3786 18.028Z" fill="white"/>
<path d="M89.7706 17.9458H91.82V9.45236H89.7706V6.84954H96.185V8.71261C96.4512 8.05506 96.8327 7.54362 97.3295 7.17832C97.8264 6.81301 98.3942 6.63035 99.033 6.63035C99.2991 6.63035 99.6096 6.68515 99.9645 6.79474C100.071 6.83127 100.177 6.8678 100.284 6.90434C100.39 6.94087 100.488 6.9774 100.577 7.01393V5.72622H102.946V12.9867H100.657V12.6032C100.657 12.1648 100.515 11.7173 100.231 11.2606C99.9645 10.7857 99.6274 10.393 99.2193 10.0825C98.8289 9.77201 98.474 9.61675 98.1546 9.61675C97.8175 9.61675 97.5158 9.76287 97.2497 10.0551C97.0013 10.3291 96.7972 10.7309 96.6375 11.2606C96.4956 11.7721 96.4246 12.3931 96.4246 13.1237V17.9458H99.6717V20.5486H89.7706V17.9458Z" fill="white"/>
<path d="M104.664 17.9458H106.714V9.45236H104.664V6.84954H111.318V17.9458H113.368V20.5486H104.664V17.9458ZM105.676 0.136991H111.797L108.869 5.61662H108.603L105.676 0.136991Z" fill="white"/>
<path d="M115.704 9.45236H114.054V6.84954H122.598V9.45236H120.788L123.423 16.7129H123.503L126.164 9.45236H123.982V6.84954H130.609V9.45236H128.959L124.647 20.5486H120.069L115.704 9.45236Z" fill="white"/>
<path d="M134.76 20.8226C133.376 20.8226 132.303 20.4847 131.54 19.8089C130.777 19.1148 130.395 18.1924 130.395 17.0417C130.395 15.8179 130.865 14.8681 131.806 14.1922C132.746 13.5164 134.139 13.1055 135.985 12.9593C136.854 12.8863 137.537 12.7675 138.034 12.6032C138.549 12.4388 138.921 12.2104 139.152 11.9182C139.4 11.6077 139.525 11.2058 139.525 10.7127C139.525 10.0369 139.4 9.55282 139.152 9.26058C138.903 8.96833 138.531 8.8222 138.034 8.8222C137.537 8.8222 136.996 8.99573 136.41 9.34277C135.843 9.68981 135.355 10.1191 134.947 10.6305C134.538 11.1419 134.308 11.626 134.255 12.0826V12.3018H131.886V5.9454H134.228V7.12352C134.884 7.05046 135.497 6.95913 136.064 6.84954C136.402 6.75821 136.756 6.69428 137.129 6.65775C137.502 6.60295 137.892 6.57556 138.3 6.57556C140.11 6.57556 141.521 7.06872 142.532 8.05506C143.544 9.04139 144.049 10.4204 144.049 12.1922V17.9458H145.753V20.5486H139.658V18.439C139.143 19.2426 138.469 19.8454 137.635 20.2472C136.819 20.6308 135.86 20.8226 134.76 20.8226ZM136.703 18.2472C137.165 18.2472 137.617 18.0919 138.061 17.7814C138.522 17.4526 138.895 17.0143 139.179 16.4663C139.48 15.9001 139.631 15.2608 139.631 14.5484V13.0963C139.4 13.352 139.108 13.5803 138.753 13.7813C138.398 13.9639 137.963 14.1009 137.448 14.1922C136.721 14.3201 136.171 14.5758 135.798 14.9594C135.426 15.3247 135.239 15.827 135.239 16.4663C135.239 16.996 135.372 17.4252 135.639 17.754C135.905 18.0828 136.26 18.2472 136.703 18.2472Z" fill="white"/>
<path d="M156.917 20.2472C156.527 20.3934 155.986 20.5121 155.294 20.6034C154.921 20.6765 154.549 20.7313 154.176 20.7678C153.803 20.8043 153.431 20.8226 153.058 20.8226C151.674 20.8226 150.432 20.5212 149.332 19.9185C148.232 19.2974 147.371 18.4481 146.75 17.3704C146.147 16.2745 145.845 15.0507 145.845 13.6991C145.845 12.3292 146.147 11.1054 146.75 10.0277C147.371 8.95006 148.232 8.10985 149.332 7.50709C150.432 6.88607 151.674 6.57556 153.058 6.57556C153.715 6.57556 154.389 6.63949 155.081 6.76734C155.72 6.87694 156.243 6.99566 156.651 7.12352V5.9454H159.02L158.994 12.6853H156.518V12.4662C156.465 11.9913 156.252 11.489 155.879 10.9593C155.507 10.4296 155.072 9.98206 154.575 9.61675C154.078 9.25144 153.626 9.06879 153.218 9.06879C152.703 9.06879 152.26 9.24231 151.887 9.58935C151.514 9.9364 151.222 10.457 151.009 11.151C150.814 11.8269 150.716 12.6762 150.716 13.6991C150.716 14.7037 150.814 15.553 151.009 16.2471C151.222 16.9229 151.514 17.4344 151.887 17.7814C152.26 18.1284 152.703 18.302 153.218 18.302C153.661 18.302 154.149 18.1284 154.682 17.7814C155.214 17.4161 155.675 16.9686 156.066 16.4389C156.456 15.9092 156.696 15.4069 156.784 14.932V14.7128H159.26V21.4528H156.917V20.2472Z" fill="white"/>
<path d="M161.602 18.7677H163.944V19.9459C163.944 20.4573 164.121 21.0053 164.476 21.5897C164.831 22.1925 165.257 22.6948 165.754 23.0966C166.268 23.5167 166.73 23.7268 167.138 23.7268C167.351 23.7268 167.528 23.6537 167.67 23.5076C167.812 23.3615 167.883 23.1697 167.883 22.9323V22.9049C167.883 22.7405 167.821 22.503 167.697 22.1925C167.59 21.9003 167.324 21.2975 166.898 20.3842C166.792 20.1468 166.667 19.8911 166.525 19.6171C166.401 19.3431 166.268 19.0509 166.126 18.7403L161.681 9.45236H160.084V6.84954H168.522V9.45236H166.951L169.16 14.795C169.214 14.9411 169.276 15.1055 169.347 15.2882C169.418 15.4526 169.489 15.6261 169.56 15.8087C169.719 16.2106 169.835 16.5302 169.906 16.7677C169.941 16.6033 169.977 16.4572 170.012 16.3293C170.048 16.1832 170.092 16.0279 170.145 15.8635L172.248 9.45236H170.039V6.84954H176.64V9.45236H174.83L171.795 17.5348C171.778 17.5713 171.769 17.6079 171.769 17.6444C171.769 17.6627 171.76 17.6901 171.742 17.7266C171.583 18.1832 171.467 18.6033 171.396 18.9869C171.343 19.3705 171.316 19.7906 171.316 20.2472V20.6856C171.316 21.8729 171.148 22.8866 170.811 23.7268C170.491 24.567 170.03 25.2063 169.427 25.6447C168.823 26.083 168.122 26.3022 167.324 26.3022C166.934 26.3022 166.534 26.2657 166.126 26.1926C165.718 26.1378 165.337 26.0556 164.982 25.9461C164.591 25.8365 164.263 25.6995 163.997 25.5351V26.7954H161.602V18.7677Z" fill="white"/>
<path d="M1.99609 36.2163C1.99609 35.1117 2.89152 34.2163 3.99609 34.2163H35.7614C36.866 34.2163 37.7614 35.1117 37.7614 36.2163V45.9154C37.7614 47.0199 36.866 47.9154 35.7614 47.9154H3.99609C2.89152 47.9154 1.99609 47.0199 1.99609 45.9154V36.2163Z" fill="white"/>
</svg>
